PathFileType	4	(X/Y/Z)	C:/Users/beibeiliu/ov580/test_trc\sequence.29_training_dense_right.trc
DataRate	CameraRate	NumFrames	NumMarkers	Units	OrigDataRate	OrigDataStartFrame	OrigNumFrames
120	120	8	19	mm	120	29	200
Frame#	Time	ThumbCMC			ThumbMCP			ThumbIP			ThumbTip			IndexMCP			IndexPIP			IndexTip			MiddleMCP			MiddlePIP			MiddleTip			RingMCP			RingPIP			RingTip			PinkyMCP			PinkyPIP			PinkyTip			BackHand1			BackHand2			BackHand3	
		X0	Y0	Z0	X1	Y1	Z1	X2	Y2	Z2	X3	Y3	Z3	X4	Y4	Z4	X5	Y5	Z5	X6	Y6	Z6	X7	Y7	Z7	X8	Y8	Z8	X9	Y9	Z9	X10	Y10	Z10	X11	Y11	Z11	X12	Y12	Z12	X13	Y13	Z13	X14	Y14	Z14	X15	Y15	Z15	X16	Y16	Z16	X17	Y17	Z17	X18	Y18	Z18	
28	0.233333	111.51	53.6639	149.164	91.1753	57.4185	130.481	78.1606	62.0125	111.753	64.8713	68.3167	94.1538	118.363	44.3054	74.6617	110.945	41.4946	54.2936	103.234	35.059	25.8038	137.143	21.2821	70.904	130.916	12.0943	48.3966	122.767	-2.0623	20.9343	148.082	3.17379	77.2958	144.136	-8.34369	55.2996	133.631	-21.5231	34.1556	156.87	-15.4961	94.5874	155.79	-29.0922	75.2971	155.318	-44.0673	56.5216	160.24	21.0824	126.905	166.364	26.0707	156.951	142.491	48.7071	134.714	
29	0.241667	112.909	51.5356	152.077	91.2651	55.2278	134.871	75.5589	63.6121	111.202	65.6157	65.8648	91.1491	119.776	39.4115	74.0173	112.084	38.4335	54.4868	105.834	32.6984	29.9779	138.451	18.3252	70.5384	131.667	7.268	47.0894	120.434	-3.01506	20.1462	148.757	1.03524	80.654	142.783	-9.69166	54.5132	131.643	-22.1566	32.4414	156.517	-16.0334	96.6175	156.176	-31.8592	75.446	156.189	-46.1953	57.6149	160.441	18.3612	126.083	167.696	23.9176	156.79	141.935	47.8143	139.409	
30	0.25	111.852	52.0764	149.938	91.4502	55.8446	133.179	77.4862	60.7806	113.549	66.9985	63.9602	95.6551	117.818	41.91	77.7323	112.551	35.1703	53.0983	107.14	31.4964	30.7448	137.764	17.3775	72.3562	131.833	6.75329	46.6465	122.817	-6.57906	22.5421	148.976	-0.0378112	78.8689	142.307	-9.26917	55.5506	132.08	-27.4497	32.4099	155.692	-16.1362	95.5572	153.911	-29.5421	75.0747	154.306	-44.4217	57.0381	160.653	16.1781	128.026	164.789	22.9084	155.126	143.68	46.1807	139.499	
31	0.258333	112.536	50.7434	151.474	90.7556	54.5443	130.947	77.8428	60.2104	112.484	64.7969	65.5707	93.6348	121.694	38.1968	79.4874	111.967	36.0807	52.8443	107.741	29.0785	28.8116	139.287	16.4942	71.4215	133.571	5.39191	48.4622	121.946	-5.79794	20.8115	147.875	-0.15857	78.3557	143.228	-12.6992	55.7817	132.176	-23.017	35.3369	157.476	-18.7839	97.3836	154.65	-30.3877	77.3866	152.215	-44.0962	55.301	159.324	16.6294	127.502	165.455	25.5911	157.225	145.55	42.5501	139.174	
32	0.266667	111.413	53.0096	154.131	90.02	55.4391	131.169	76.5025	61.9328	110.044	65.2696	64.3996	92.4474	121.504	38.9257	80.4045	109.571	37.7118	52.1929	105.884	31.1422	31.8255	138.13	17.5789	75.366	130.532	8.13949	47.7726	124.581	-7.82472	23.2497	148.802	-0.308093	80.9141	143.486	-11.0645	57.1877	133.134	-27.791	34.3918	157.151	-16.8426	98.5308	157.491	-33.505	79.35	150.997	-46.8113	54.6861	162.706	15.5572	129.268	166.565	20.2658	156.434	145.512	42.06	136.409	
33	0.275	111.587	50.8641	152.746	90.4408	55.4496	136.201	76.1868	60.4061	113.854	64.783	65.8328	93.1206	118.268	41.1222	76.7139	111.479	37.2388	54.7409	108.42	28.9073	30.728	139.576	14.9747	76.2866	132.187	7.37311	48.8417	124.125	-4.78147	24.8833	149.527	-2.28958	78.0879	145.092	-13.1608	56.9945	135.597	-28.526	37.4949	158.5	-17.9796	96.1397	157.819	-32.2469	78.507	155.206	-48.6594	54.3241	162.848	17.9382	128.55	165.065	23.4441	154.27	142.199	45.6422	139.984	
34	0.283333	112.048	49.7215	150.067	89.9624	56.1237	132.371	78.7991	57.7989	114.127	64.3625	66.2856	93.762	121.373	36.6012	77.6128	109.849	37.706	50.8922	107.463	30.5374	30.4593	135.885	18.5046	70.9755	131.488	7.47757	49.4463	122.691	-8.16797	22.4016	147.848	0.295849	79.2952	144.432	-12.585	58.8018	131.135	-26.4494	33.1196	157.414	-17.743	95.9165	156.512	-33.035	77.6991	153.686	-44.9823	55.6381	161.657	15.3596	130.449	164.419	23.6579	157.539	142.541	44.2084	136.692	
35	0.291667	112.995	49.5288	153.552	90.4212	55.1684	130.89	76.4164	60.5903	112.513	66.6618	61.7021	93.6601	118.775	40.0581	75.2653	113.242	33.3784	54.4918	106.562	31.0334	30.7123	137.732	16.2018	70.0155	131.957	5.53757	47.6218	125.028	-10.1151	24.0832	149.852	-2.59667	81.231	141.811	-12.3	55.0627	132.254	-29.9669	33.1004	157.693	-18.3386	93.6595	155.437	-30.6694	79.7019	152.786	-46.9264	56.6816	161.147	18.9516	128.583	165.68	23.817	159.32	145.579	42.6781	137.713	
